<svg xmlns="http://www.w3.org/2000/svg" xmlns:xlink="http://www.w3.org/1999/xlink" width="2000" zoomAndPan="magnify" viewBox="0 0 1500 1499.999933" height="2000" preserveAspectRatio="xMidYMid meet" version="1.0"><defs><filter x="0%" y="0%" width="100%" height="100%" id="2b76be38f6"><feColorMatrix values="0 0 0 0 1 0 0 0 0 1 0 0 0 0 1 0 0 0 1 0" color-interpolation-filters="sRGB"/></filter><g/><clipPath id="03622397b7"><path d="M 133.757812 0 L 1283.507812 0 L 1283.507812 1254.351562 L 133.757812 1254.351562 Z M 133.757812 0 " clip-rule="nonzero"/></clipPath><clipPath id="83c3f17163"><path d="M 0.757812 0 L 1150.507812 0 L 1150.507812 1254.351562 L 0.757812 1254.351562 Z M 0.757812 0 " clip-rule="nonzero"/></clipPath><clipPath id="7974f84c2c"><path d="M 0.757812 0 L 1150.507812 0 L 1150.507812 1204.851562 L 0.757812 1204.851562 Z M 0.757812 0 " clip-rule="nonzero"/></clipPath><linearGradient x1="-650.66199" gradientTransform="matrix(0.750285, 0, 0, 0.74985, 488.940756, 424.509087)" y1="227" x2="881.75548" gradientUnits="userSpaceOnUse" y2="227" id="6fed74fcf5"><stop stop-opacity="1" stop-color="rgb(80.389404%, 100%, 84.709167%)" offset="0"/><stop stop-opacity="1" stop-color="rgb(80.389404%, 100%, 84.709167%)" offset="0.25"/><stop stop-opacity="1" stop-color="rgb(80.389404%, 100%, 84.709167%)" offset="0.375"/><stop stop-opacity="1" stop-color="rgb(80.389404%, 100%, 84.709167%)" offset="0.40625"/><stop stop-opacity="1" stop-color="rgb(80.389404%, 100%, 84.709167%)" offset="0.421875"/><stop stop-opacity="1" stop-color="rgb(80.026245%, 99.554443%, 84.95636%)" offset="0.425781"/><stop stop-opacity="1" stop-color="rgb(79.664612%, 99.110413%, 85.205078%)" offset="0.429688"/><stop stop-opacity="1" stop-color="rgb(79.109192%, 98.426819%, 85.585022%)" offset="0.433594"/><stop stop-opacity="1" stop-color="rgb(78.553772%, 97.744751%, 85.964966%)" offset="0.4375"/><stop stop-opacity="1" stop-color="rgb(77.998352%, 97.062683%, 86.34491%)" offset="0.441406"/><stop stop-opacity="1" stop-color="rgb(77.442932%, 96.380615%, 86.724854%)" offset="0.445312"/><stop stop-opacity="1" stop-color="rgb(76.885986%, 95.697021%, 87.104797%)" offset="0.449219"/><stop stop-opacity="1" stop-color="rgb(76.330566%, 95.014954%, 87.486267%)" offset="0.453125"/><stop stop-opacity="1" stop-color="rgb(75.775146%, 94.33136%, 87.866211%)" offset="0.457031"/><stop stop-opacity="1" stop-color="rgb(75.219727%, 93.649292%, 88.246155%)" offset="0.460938"/><stop stop-opacity="1" stop-color="rgb(74.664307%, 92.967224%, 88.626099%)" offset="0.464844"/><stop stop-opacity="1" stop-color="rgb(74.108887%, 92.285156%, 89.006042%)" offset="0.46875"/><stop stop-opacity="1" stop-color="rgb(73.551941%, 91.601562%, 89.385986%)" offset="0.472656"/><stop stop-opacity="1" stop-color="rgb(72.996521%, 90.919495%, 89.76593%)" offset="0.476562"/><stop stop-opacity="1" stop-color="rgb(72.441101%, 90.237427%, 90.145874%)" offset="0.480469"/><stop stop-opacity="1" stop-color="rgb(71.885681%, 89.555359%, 90.527344%)" offset="0.484375"/><stop stop-opacity="1" stop-color="rgb(71.328735%, 88.871765%, 90.907288%)" offset="0.488281"/><stop stop-opacity="1" stop-color="rgb(70.773315%, 88.189697%, 91.287231%)" offset="0.492188"/><stop stop-opacity="1" stop-color="rgb(70.217896%, 87.506104%, 91.667175%)" offset="0.496094"/><stop stop-opacity="1" stop-color="rgb(69.662476%, 86.824036%, 92.047119%)" offset="0.5"/><stop stop-opacity="1" stop-color="rgb(69.107056%, 86.141968%, 92.427063%)" offset="0.503906"/><stop stop-opacity="1" stop-color="rgb(68.551636%, 85.4599%, 92.808533%)" offset="0.507812"/><stop stop-opacity="1" stop-color="rgb(67.99469%, 84.776306%, 93.188477%)" offset="0.511719"/><stop stop-opacity="1" stop-color="rgb(67.43927%, 84.094238%, 93.56842%)" offset="0.515625"/><stop stop-opacity="1" stop-color="rgb(66.88385%, 83.41217%, 93.948364%)" offset="0.519531"/><stop stop-opacity="1" stop-color="rgb(66.32843%, 82.730103%, 94.328308%)" offset="0.523438"/><stop stop-opacity="1" stop-color="rgb(65.771484%, 82.046509%, 94.708252%)" offset="0.527344"/><stop stop-opacity="1" stop-color="rgb(65.216064%, 81.364441%, 95.088196%)" offset="0.53125"/><stop stop-opacity="1" stop-color="rgb(64.660645%, 80.682373%, 95.46814%)" offset="0.535156"/><stop stop-opacity="1" stop-color="rgb(64.105225%, 80.000305%, 95.849609%)" offset="0.539062"/><stop stop-opacity="1" stop-color="rgb(63.549805%, 79.316711%, 96.229553%)" offset="0.542969"/><stop stop-opacity="1" stop-color="rgb(62.994385%, 78.634644%, 96.609497%)" offset="0.546875"/><stop stop-opacity="1" stop-color="rgb(62.437439%, 77.95105%, 96.989441%)" offset="0.550781"/><stop stop-opacity="1" stop-color="rgb(61.882019%, 77.268982%, 97.369385%)" offset="0.554688"/><stop stop-opacity="1" stop-color="rgb(61.326599%, 76.586914%, 97.749329%)" offset="0.558594"/><stop stop-opacity="1" stop-color="rgb(60.771179%, 75.904846%, 98.130798%)" offset="0.5625"/><stop stop-opacity="1" stop-color="rgb(60.215759%, 75.221252%, 98.510742%)" offset="0.566406"/><stop stop-opacity="1" stop-color="rgb(59.660339%, 74.539185%, 98.890686%)" offset="0.570312"/><stop stop-opacity="1" stop-color="rgb(59.103394%, 73.857117%, 99.27063%)" offset="0.574219"/><stop stop-opacity="1" stop-color="rgb(58.547974%, 73.175049%, 99.650574%)" offset="0.578125"/><stop stop-opacity="1" stop-color="rgb(58.293152%, 72.862244%, 99.824524%)" offset="0.582031"/><stop stop-opacity="1" stop-color="rgb(58.039856%, 72.549438%, 100%)" offset="0.585937"/><stop stop-opacity="1" stop-color="rgb(58.039856%, 72.549438%, 100%)" offset="0.59375"/><stop stop-opacity="1" stop-color="rgb(58.039856%, 72.549438%, 100%)" offset="0.625"/><stop stop-opacity="1" stop-color="rgb(58.039856%, 72.549438%, 100%)" offset="0.75"/><stop stop-opacity="1" stop-color="rgb(58.039856%, 72.549438%, 100%)" offset="1"/></linearGradient><clipPath id="4b90c47df7"><rect x="0" width="1151" y="0" height="1255"/></clipPath><clipPath id="73c2424e2b"><path d="M 0.757812 0 L 1150.507812 0 L 1150.507812 1254.351562 L 0.757812 1254.351562 Z M 0.757812 0 " clip-rule="nonzero"/></clipPath><clipPath id="8498148d6b"><rect x="0" width="1151" y="0" height="1255"/></clipPath><clipPath id="d3bb6e312c"><rect x="0" width="1151" y="0" height="1255"/></clipPath><mask id="db7ff0b169"><g filter="url(#2b76be38f6)"><g transform="matrix(1, 0, 0, 1, -0.000000000000028422, 0.000000000000112861)"><g clip-path="url(#d3bb6e312c)"><g clip-path="url(#73c2424e2b)"><g transform="matrix(1, 0, 0, 1, -0.000000000000028422, 0.000000000000112861)"><g clip-path="url(#8498148d6b)"><g fill="#000000" fill-opacity="1"><g transform="translate(489.008724, 692.600104)"><g><path d="M 10.25 -170.0625 L 170.3125 -170.0625 L 90.28125 3.421875 Z M 90.28125 -18.0625 L 156.40625 -161.046875 L 24.40625 -161.046875 Z M 90.28125 -18.0625 "/></g></g></g></g></g></g></g></g></g></mask><clipPath id="13b1038859"><path d="M 0.757812 0 L 1150.507812 0 L 1150.507812 1204.851562 L 0.757812 1204.851562 Z M 0.757812 0 " clip-rule="nonzero"/></clipPath><clipPath id="0a91f3175c"><rect x="0" width="1151" y="0" height="1255"/></clipPath><clipPath id="2e8e132fbf"><rect x="0" width="1151" y="0" height="1255"/></clipPath><clipPath id="6731b62c88"><path d="M 609.675781 78.75 L 1500 78.75 L 1500 1091.25 L 609.675781 1091.25 Z M 609.675781 78.75 " clip-rule="nonzero"/></clipPath><clipPath id="3cbef06918"><path d="M 0.675781 0.75 L 891 0.75 L 891 1013.25 L 0.675781 1013.25 Z M 0.675781 0.75 " clip-rule="nonzero"/></clipPath><clipPath id="0b2fc6e81c"><path d="M 0.675781 0.75 L 891 0.75 L 891 1013.25 L 0.675781 1013.25 Z M 0.675781 0.75 " clip-rule="nonzero"/></clipPath><linearGradient x1="-600" gradientTransform="matrix(0.750158, 0, 0, 0.749992, 450.769622, 450.750582)" y1="74.5" x2="586.850362" gradientUnits="userSpaceOnUse" y2="74.5" id="8234ecf881"><stop stop-opacity="1" stop-color="rgb(80.389404%, 100%, 84.709167%)" offset="0"/><stop stop-opacity="1" stop-color="rgb(80.389404%, 100%, 84.709167%)" offset="0.5"/><stop stop-opacity="1" stop-color="rgb(80.221558%, 99.79248%, 84.823608%)" offset="0.503906"/><stop stop-opacity="1" stop-color="rgb(80.053711%, 99.586487%, 84.939575%)" offset="0.507812"/><stop stop-opacity="1" stop-color="rgb(79.475403%, 98.876953%, 85.334778%)" offset="0.511719"/><stop stop-opacity="1" stop-color="rgb(78.898621%, 98.167419%, 85.72998%)" offset="0.515625"/><stop stop-opacity="1" stop-color="rgb(78.320312%, 97.457886%, 86.123657%)" offset="0.519531"/><stop stop-opacity="1" stop-color="rgb(77.74353%, 96.748352%, 86.51886%)" offset="0.523438"/><stop stop-opacity="1" stop-color="rgb(77.165222%, 96.038818%, 86.914062%)" offset="0.527344"/><stop stop-opacity="1" stop-color="rgb(76.58844%, 95.330811%, 87.309265%)" offset="0.53125"/><stop stop-opacity="1" stop-color="rgb(76.010132%, 94.621277%, 87.704468%)" offset="0.535156"/><stop stop-opacity="1" stop-color="rgb(75.43335%, 93.911743%, 88.09967%)" offset="0.539062"/><stop stop-opacity="1" stop-color="rgb(74.855042%, 93.202209%, 88.494873%)" offset="0.542969"/><stop stop-opacity="1" stop-color="rgb(74.278259%, 92.492676%, 88.890076%)" offset="0.546875"/><stop stop-opacity="1" stop-color="rgb(73.699951%, 91.783142%, 89.285278%)" offset="0.550781"/><stop stop-opacity="1" stop-color="rgb(73.123169%, 91.073608%, 89.680481%)" offset="0.554688"/><stop stop-opacity="1" stop-color="rgb(72.544861%, 90.364075%, 90.075684%)" offset="0.558594"/><stop stop-opacity="1" stop-color="rgb(71.968079%, 89.656067%, 90.470886%)" offset="0.5625"/><stop stop-opacity="1" stop-color="rgb(71.389771%, 88.946533%, 90.866089%)" offset="0.566406"/><stop stop-opacity="1" stop-color="rgb(70.812988%, 88.237%, 91.261292%)" offset="0.570312"/><stop stop-opacity="1" stop-color="rgb(70.23468%, 87.527466%, 91.656494%)" offset="0.574219"/><stop stop-opacity="1" stop-color="rgb(69.656372%, 86.817932%, 92.051697%)" offset="0.578125"/><stop stop-opacity="1" stop-color="rgb(69.078064%, 86.108398%, 92.446899%)" offset="0.582031"/><stop stop-opacity="1" stop-color="rgb(68.501282%, 85.398865%, 92.842102%)" offset="0.585938"/><stop stop-opacity="1" stop-color="rgb(67.922974%, 84.689331%, 93.235779%)" offset="0.589844"/><stop stop-opacity="1" stop-color="rgb(67.346191%, 83.981323%, 93.630981%)" offset="0.59375"/><stop stop-opacity="1" stop-color="rgb(66.767883%, 83.27179%, 94.026184%)" offset="0.597656"/><stop stop-opacity="1" stop-color="rgb(66.191101%, 82.562256%, 94.421387%)" offset="0.601562"/><stop stop-opacity="1" stop-color="rgb(65.612793%, 81.852722%, 94.816589%)" offset="0.605469"/><stop stop-opacity="1" stop-color="rgb(65.036011%, 81.143188%, 95.211792%)" offset="0.609375"/><stop stop-opacity="1" stop-color="rgb(64.457703%, 80.433655%, 95.606995%)" offset="0.613281"/><stop stop-opacity="1" stop-color="rgb(63.88092%, 79.724121%, 96.002197%)" offset="0.617188"/><stop stop-opacity="1" stop-color="rgb(63.302612%, 79.014587%, 96.3974%)" offset="0.621094"/><stop stop-opacity="1" stop-color="rgb(62.72583%, 78.30658%, 96.792603%)" offset="0.625"/><stop stop-opacity="1" stop-color="rgb(62.147522%, 77.597046%, 97.187805%)" offset="0.628906"/><stop stop-opacity="1" stop-color="rgb(61.57074%, 76.887512%, 97.583008%)" offset="0.632812"/><stop stop-opacity="1" stop-color="rgb(60.992432%, 76.177979%, 97.97821%)" offset="0.636719"/><stop stop-opacity="1" stop-color="rgb(60.415649%, 75.468445%, 98.373413%)" offset="0.640625"/><stop stop-opacity="1" stop-color="rgb(59.837341%, 74.758911%, 98.768616%)" offset="0.644531"/><stop stop-opacity="1" stop-color="rgb(59.260559%, 74.049377%, 99.163818%)" offset="0.648438"/><stop stop-opacity="1" stop-color="rgb(58.682251%, 73.339844%, 99.559021%)" offset="0.652344"/><stop stop-opacity="1" stop-color="rgb(58.105469%, 72.631836%, 99.954224%)" offset="0.65625"/><stop stop-opacity="1" stop-color="rgb(58.071899%, 72.590637%, 99.977112%)" offset="0.6875"/><stop stop-opacity="1" stop-color="rgb(58.039856%, 72.549438%, 100%)" offset="0.75"/><stop stop-opacity="1" stop-color="rgb(58.039856%, 72.549438%, 100%)" offset="1"/></linearGradient><clipPath id="f9054fe247"><rect x="0" width="891" y="0" height="1014"/></clipPath><clipPath id="7c4c16c431"><path d="M 0.675781 0.75 L 891 0.75 L 891 1013.25 L 0.675781 1013.25 Z M 0.675781 0.75 " clip-rule="nonzero"/></clipPath><clipPath id="2f04413b71"><rect x="0" width="891" y="0" height="1014"/></clipPath><clipPath id="650c79d064"><rect x="0" width="891" y="0" height="1014"/></clipPath><mask id="3184520ba3"><g filter="url(#2b76be38f6)"><g transform="matrix(1, 0, 0, 1, 0, 0.000000000000113687)"><g clip-path="url(#650c79d064)"><g clip-path="url(#7c4c16c431)"><g transform="matrix(1, 0, 0, 1, 0, 0.000000000000113687)"><g clip-path="url(#2f04413b71)"><g fill="#000000" fill-opacity="1"><g transform="translate(450.674942, 611.249921)"><g><path d="M 112.5 -168.75 L 112.5 -153.671875 L 65.25 -153.671875 L 65.25 0 L 49.953125 0 L 49.953125 -153.671875 L 2.921875 -153.671875 L 2.921875 -168.75 Z M 112.5 -168.75 "/></g></g></g></g></g></g></g></g></g></mask><clipPath id="c89944cf54"><path d="M 0.675781 0.75 L 891 0.75 L 891 1013.25 L 0.675781 1013.25 Z M 0.675781 0.75 " clip-rule="nonzero"/></clipPath><clipPath id="c74a290ce5"><rect x="0" width="891" y="0" height="1014"/></clipPath><clipPath id="6824f49ef3"><rect x="0" width="891" y="0" height="1014"/></clipPath><clipPath id="663d1583cc"><path d="M 342.351562 78.75 L 1362.351562 78.75 L 1362.351562 1091.25 L 342.351562 1091.25 Z M 342.351562 78.75 " clip-rule="nonzero"/></clipPath><clipPath id="9989419e60"><path d="M 0.351562 0.75 L 1020.351562 0.75 L 1020.351562 1013.25 L 0.351562 1013.25 Z M 0.351562 0.75 " clip-rule="nonzero"/></clipPath><clipPath id="2794f743fd"><path d="M 0.351562 0.75 L 1020.351562 0.75 L 1020.351562 1013.25 L 0.351562 1013.25 Z M 0.351562 0.75 " clip-rule="nonzero"/></clipPath><linearGradient x1="-599.999923" gradientTransform="matrix(0.74988, 0, 0, 0.749992, 450.280981, 450.75051)" y1="74.5" x2="760.218103" gradientUnits="userSpaceOnUse" y2="74.5" id="66ad9fdf77"><stop stop-opacity="1" stop-color="rgb(80.389404%, 100%, 84.709167%)" offset="0"/><stop stop-opacity="1" stop-color="rgb(80.389404%, 100%, 84.709167%)" offset="0.25"/><stop stop-opacity="1" stop-color="rgb(80.389404%, 100%, 84.709167%)" offset="0.375"/><stop stop-opacity="1" stop-color="rgb(80.389404%, 100%, 84.709167%)" offset="0.4375"/><stop stop-opacity="1" stop-color="rgb(80.053711%, 99.588013%, 84.938049%)" offset="0.441406"/><stop stop-opacity="1" stop-color="rgb(79.719543%, 99.177551%, 85.166931%)" offset="0.445312"/><stop stop-opacity="1" stop-color="rgb(79.098511%, 98.414612%, 85.591125%)" offset="0.449219"/><stop stop-opacity="1" stop-color="rgb(78.477478%, 97.651672%, 86.016846%)" offset="0.453125"/><stop stop-opacity="1" stop-color="rgb(77.854919%, 96.887207%, 86.44104%)" offset="0.457031"/><stop stop-opacity="1" stop-color="rgb(77.233887%, 96.124268%, 86.86676%)" offset="0.460938"/><stop stop-opacity="1" stop-color="rgb(76.612854%, 95.361328%, 87.29248%)" offset="0.464844"/><stop stop-opacity="1" stop-color="rgb(75.991821%, 94.598389%, 87.718201%)" offset="0.46875"/><stop stop-opacity="1" stop-color="rgb(75.369263%, 93.835449%, 88.142395%)" offset="0.472656"/><stop stop-opacity="1" stop-color="rgb(74.74823%, 93.07251%, 88.568115%)" offset="0.476562"/><stop stop-opacity="1" stop-color="rgb(74.127197%, 92.308044%, 88.99231%)" offset="0.480469"/><stop stop-opacity="1" stop-color="rgb(73.506165%, 91.545105%, 89.41803%)" offset="0.484375"/><stop stop-opacity="1" stop-color="rgb(72.885132%, 90.782166%, 89.842224%)" offset="0.488281"/><stop stop-opacity="1" stop-color="rgb(72.264099%, 90.019226%, 90.267944%)" offset="0.492188"/><stop stop-opacity="1" stop-color="rgb(71.641541%, 89.256287%, 90.692139%)" offset="0.496094"/><stop stop-opacity="1" stop-color="rgb(71.020508%, 88.493347%, 91.117859%)" offset="0.5"/><stop stop-opacity="1" stop-color="rgb(70.399475%, 87.728882%, 91.543579%)" offset="0.503906"/><stop stop-opacity="1" stop-color="rgb(69.778442%, 86.965942%, 91.969299%)" offset="0.507812"/><stop stop-opacity="1" stop-color="rgb(69.155884%, 86.203003%, 92.393494%)" offset="0.511719"/><stop stop-opacity="1" stop-color="rgb(68.534851%, 85.440063%, 92.819214%)" offset="0.515625"/><stop stop-opacity="1" stop-color="rgb(67.913818%, 84.677124%, 93.243408%)" offset="0.519531"/><stop stop-opacity="1" stop-color="rgb(67.292786%, 83.914185%, 93.669128%)" offset="0.523438"/><stop stop-opacity="1" stop-color="rgb(66.670227%, 83.149719%, 94.093323%)" offset="0.527344"/><stop stop-opacity="1" stop-color="rgb(66.049194%, 82.38678%, 94.519043%)" offset="0.53125"/><stop stop-opacity="1" stop-color="rgb(65.428162%, 81.62384%, 94.943237%)" offset="0.535156"/><stop stop-opacity="1" stop-color="rgb(64.807129%, 80.860901%, 95.368958%)" offset="0.539062"/><stop stop-opacity="1" stop-color="rgb(64.18457%, 80.097961%, 95.794678%)" offset="0.542969"/><stop stop-opacity="1" stop-color="rgb(63.563538%, 79.335022%, 96.220398%)" offset="0.546875"/><stop stop-opacity="1" stop-color="rgb(62.942505%, 78.570557%, 96.644592%)" offset="0.550781"/><stop stop-opacity="1" stop-color="rgb(62.321472%, 77.807617%, 97.070312%)" offset="0.554688"/><stop stop-opacity="1" stop-color="rgb(61.698914%, 77.044678%, 97.494507%)" offset="0.558594"/><stop stop-opacity="1" stop-color="rgb(61.077881%, 76.281738%, 97.920227%)" offset="0.5625"/><stop stop-opacity="1" stop-color="rgb(60.456848%, 75.518799%, 98.344421%)" offset="0.566406"/><stop stop-opacity="1" stop-color="rgb(59.835815%, 74.755859%, 98.770142%)" offset="0.570312"/><stop stop-opacity="1" stop-color="rgb(59.213257%, 73.991394%, 99.194336%)" offset="0.574219"/><stop stop-opacity="1" stop-color="rgb(58.592224%, 73.228455%, 99.620056%)" offset="0.578125"/><stop stop-opacity="1" stop-color="rgb(58.31604%, 72.888184%, 99.809265%)" offset="0.582031"/><stop stop-opacity="1" stop-color="rgb(58.039856%, 72.549438%, 100%)" offset="0.585938"/><stop stop-opacity="1" stop-color="rgb(58.039856%, 72.549438%, 100%)" offset="0.59375"/><stop stop-opacity="1" stop-color="rgb(58.039856%, 72.549438%, 100%)" offset="0.625"/><stop stop-opacity="1" stop-color="rgb(58.039856%, 72.549438%, 100%)" offset="0.75"/><stop stop-opacity="1" stop-color="rgb(58.039856%, 72.549438%, 100%)" offset="1"/></linearGradient><clipPath id="4e4b2ee54b"><rect x="0" width="1021" y="0" height="1014"/></clipPath><clipPath id="2e4bb2f666"><path d="M 0.351562 0.75 L 1020.351562 0.75 L 1020.351562 1013.25 L 0.351562 1013.25 Z M 0.351562 0.75 " clip-rule="nonzero"/></clipPath><clipPath id="8886c22e5d"><rect x="0" width="1021" y="0" height="1014"/></clipPath><clipPath id="6151ec6fb2"><rect x="0" width="1021" y="0" height="1014"/></clipPath><mask id="75efb6809c"><g filter="url(#2b76be38f6)"><g transform="matrix(1, 0, 0, 1, -0.000000000000056843, 0.000000000000113687)"><g clip-path="url(#6151ec6fb2)"><g clip-path="url(#2e4bb2f666)"><g transform="matrix(1, 0, 0, 1, -0.000000000000056843, 0.000000000000113687)"><g clip-path="url(#8886c22e5d)"><g fill="#000000" fill-opacity="1"><g transform="translate(450.353173, 611.249921)"><g><path d="M 112.953125 -154.125 L 37.34375 -154.125 L 37.34375 -91.796875 L 103.5 -91.796875 L 103.5 -76.953125 L 37.34375 -76.953125 L 37.34375 -14.625 L 112.953125 -14.625 L 112.953125 0 L 22.28125 0 L 22.28125 -168.75 L 112.953125 -168.75 Z M 112.953125 -154.125 "/></g></g></g></g></g></g></g></g></g></mask><clipPath id="816cad4795"><path d="M 0.351562 0.75 L 1020.351562 0.75 L 1020.351562 1013.25 L 0.351562 1013.25 Z M 0.351562 0.75 " clip-rule="nonzero"/></clipPath><clipPath id="2a61bbb20b"><rect x="0" width="1021" y="0" height="1014"/></clipPath><clipPath id="49be9cfa69"><rect x="0" width="1021" y="0" height="1014"/></clipPath><clipPath id="cf4951d4a7"><path d="M 415.445312 0 L 1500 0 L 1500 1249.851562 L 415.445312 1249.851562 Z M 415.445312 0 " clip-rule="nonzero"/></clipPath><clipPath id="3ebface1ea"><path d="M 0.445312 0 L 1085 0 L 1085 1249.851562 L 0.445312 1249.851562 Z M 0.445312 0 " clip-rule="nonzero"/></clipPath><clipPath id="ee54355e38"><path d="M 0.445312 0 L 1085 0 L 1085 1200.351562 L 0.445312 1200.351562 Z M 0.445312 0 " clip-rule="nonzero"/></clipPath><linearGradient x1="-650.66199" gradientTransform="matrix(0.749964, 0, 0, 0.74985, 488.419188, 420.009088)" y1="227" x2="795.479207" gradientUnits="userSpaceOnUse" y2="227" id="663abe0500"><stop stop-opacity="1" stop-color="rgb(80.389404%, 100%, 84.709167%)" offset="0"/><stop stop-opacity="1" stop-color="rgb(80.389404%, 100%, 84.709167%)" offset="0.25"/><stop stop-opacity="1" stop-color="rgb(80.389404%, 100%, 84.709167%)" offset="0.375"/><stop stop-opacity="1" stop-color="rgb(80.389404%, 100%, 84.709167%)" offset="0.4375"/><stop stop-opacity="1" stop-color="rgb(80.389404%, 100%, 84.709167%)" offset="0.445312"/><stop stop-opacity="1" stop-color="rgb(80.174255%, 99.736023%, 84.855652%)" offset="0.449219"/><stop stop-opacity="1" stop-color="rgb(79.960632%, 99.472046%, 85.002136%)" offset="0.453125"/><stop stop-opacity="1" stop-color="rgb(79.43573%, 98.828125%, 85.360718%)" offset="0.457031"/><stop stop-opacity="1" stop-color="rgb(78.910828%, 98.184204%, 85.720825%)" offset="0.460938"/><stop stop-opacity="1" stop-color="rgb(78.385925%, 97.540283%, 86.079407%)" offset="0.464844"/><stop stop-opacity="1" stop-color="rgb(77.862549%, 96.896362%, 86.437988%)" offset="0.46875"/><stop stop-opacity="1" stop-color="rgb(77.337646%, 96.252441%, 86.79657%)" offset="0.472656"/><stop stop-opacity="1" stop-color="rgb(76.81427%, 95.608521%, 87.155151%)" offset="0.476562"/><stop stop-opacity="1" stop-color="rgb(76.289368%, 94.963074%, 87.513733%)" offset="0.480469"/><stop stop-opacity="1" stop-color="rgb(75.764465%, 94.319153%, 87.872314%)" offset="0.484375"/><stop stop-opacity="1" stop-color="rgb(75.239563%, 93.675232%, 88.230896%)" offset="0.488281"/><stop stop-opacity="1" stop-color="rgb(74.716187%, 93.031311%, 88.591003%)" offset="0.492188"/><stop stop-opacity="1" stop-color="rgb(74.191284%, 92.38739%, 88.949585%)" offset="0.496094"/><stop stop-opacity="1" stop-color="rgb(73.667908%, 91.743469%, 89.308167%)" offset="0.5"/><stop stop-opacity="1" stop-color="rgb(73.143005%, 91.099548%, 89.666748%)" offset="0.503906"/><stop stop-opacity="1" stop-color="rgb(72.618103%, 90.455627%, 90.02533%)" offset="0.507812"/><stop stop-opacity="1" stop-color="rgb(72.093201%, 89.810181%, 90.383911%)" offset="0.511719"/><stop stop-opacity="1" stop-color="rgb(71.569824%, 89.16626%, 90.742493%)" offset="0.515625"/><stop stop-opacity="1" stop-color="rgb(71.044922%, 88.522339%, 91.101074%)" offset="0.519531"/><stop stop-opacity="1" stop-color="rgb(70.52002%, 87.878418%, 91.461182%)" offset="0.523438"/><stop stop-opacity="1" stop-color="rgb(69.995117%, 87.234497%, 91.819763%)" offset="0.527344"/><stop stop-opacity="1" stop-color="rgb(69.471741%, 86.590576%, 92.178345%)" offset="0.53125"/><stop stop-opacity="1" stop-color="rgb(68.946838%, 85.946655%, 92.536926%)" offset="0.535156"/><stop stop-opacity="1" stop-color="rgb(68.423462%, 85.302734%, 92.895508%)" offset="0.539062"/><stop stop-opacity="1" stop-color="rgb(67.89856%, 84.658813%, 93.254089%)" offset="0.542969"/><stop stop-opacity="1" stop-color="rgb(67.373657%, 84.014893%, 93.612671%)" offset="0.546875"/><stop stop-opacity="1" stop-color="rgb(66.848755%, 83.369446%, 93.971252%)" offset="0.550781"/><stop stop-opacity="1" stop-color="rgb(66.325378%, 82.725525%, 94.33136%)" offset="0.554688"/><stop stop-opacity="1" stop-color="rgb(65.800476%, 82.081604%, 94.689941%)" offset="0.558594"/><stop stop-opacity="1" stop-color="rgb(65.2771%, 81.437683%, 95.048523%)" offset="0.5625"/><stop stop-opacity="1" stop-color="rgb(64.752197%, 80.793762%, 95.407104%)" offset="0.566406"/><stop stop-opacity="1" stop-color="rgb(64.227295%, 80.149841%, 95.765686%)" offset="0.570312"/><stop stop-opacity="1" stop-color="rgb(63.702393%, 79.50592%, 96.124268%)" offset="0.574219"/><stop stop-opacity="1" stop-color="rgb(63.179016%, 78.862%, 96.482849%)" offset="0.578125"/><stop stop-opacity="1" stop-color="rgb(62.654114%, 78.216553%, 96.841431%)" offset="0.582031"/><stop stop-opacity="1" stop-color="rgb(62.129211%, 77.572632%, 97.200012%)" offset="0.585938"/><stop stop-opacity="1" stop-color="rgb(61.604309%, 76.928711%, 97.558594%)" offset="0.589844"/><stop stop-opacity="1" stop-color="rgb(61.080933%, 76.28479%, 97.918701%)" offset="0.59375"/><stop stop-opacity="1" stop-color="rgb(60.55603%, 75.640869%, 98.277283%)" offset="0.597656"/><stop stop-opacity="1" stop-color="rgb(60.032654%, 74.996948%, 98.635864%)" offset="0.601562"/><stop stop-opacity="1" stop-color="rgb(59.507751%, 74.353027%, 98.994446%)" offset="0.605469"/><stop stop-opacity="1" stop-color="rgb(58.982849%, 73.709106%, 99.353027%)" offset="0.609375"/><stop stop-opacity="1" stop-color="rgb(58.511353%, 73.129272%, 99.676514%)" offset="0.613281"/><stop stop-opacity="1" stop-color="rgb(58.039856%, 72.549438%, 100%)" offset="0.617188"/><stop stop-opacity="1" stop-color="rgb(58.039856%, 72.549438%, 100%)" offset="0.625"/><stop stop-opacity="1" stop-color="rgb(58.039856%, 72.549438%, 100%)" offset="0.75"/><stop stop-opacity="1" stop-color="rgb(58.039856%, 72.549438%, 100%)" offset="1"/></linearGradient><clipPath id="086ecbe242"><rect x="0" width="1085" y="0" height="1250"/></clipPath><clipPath id="10ff6dded8"><path d="M 0.445312 0 L 1085 0 L 1085 1249.851562 L 0.445312 1249.851562 Z M 0.445312 0 " clip-rule="nonzero"/></clipPath><clipPath id="b930053eb4"><rect x="0" width="1085" y="0" height="1250"/></clipPath><clipPath id="87e7b00dba"><rect x="0" width="1085" y="0" height="1250"/></clipPath><mask id="98efc93c99"><g filter="url(#2b76be38f6)"><g transform="matrix(1, 0, 0, 1, 0, 0.000000000000112861)"><g clip-path="url(#87e7b00dba)"><g clip-path="url(#10ff6dded8)"><g transform="matrix(1, 0, 0, 1, 0, 0.000000000000112861)"><g clip-path="url(#b930053eb4)"><g fill="#000000" fill-opacity="1"><g transform="translate(488.6961, 688.100105)"><g><path d="M 160.546875 0 L 30.015625 0 L 30.015625 -169.828125 L 96.140625 -169.828125 C 110.285156 -169.828125 121.832031 -167.304688 130.78125 -162.265625 C 139.5625 -157.378906 146.390625 -150.707031 151.265625 -142.25 C 156.148438 -133.789062 158.59375 -124.4375 158.59375 -114.1875 C 158.59375 -101.5 154.6875 -90.148438 146.875 -80.140625 C 139.070312 -70.140625 129.234375 -63.515625 117.359375 -60.265625 Z M 45.390625 -160.796875 L 111.75 -68.078125 C 122.644531 -70.347656 131.671875 -75.796875 138.828125 -84.421875 C 145.992188 -93.046875 149.578125 -102.96875 149.578125 -114.1875 C 149.578125 -123.132812 147.378906 -131.269531 142.984375 -138.59375 C 138.585938 -145.914062 132.40625 -151.523438 124.4375 -155.421875 C 117.28125 -159.003906 107.925781 -160.796875 96.375 -160.796875 Z M 39.046875 -154.9375 L 39.046875 -67.34375 L 101.75 -67.34375 Z M 39.046875 -9.03125 L 143.46875 -9.03125 L 107.84375 -58.5625 L 100.28125 -58.3125 L 39.046875 -58.3125 Z M 39.046875 -9.03125 "/></g></g></g></g></g></g></g></g></g></mask><clipPath id="f2a1f5f902"><path d="M 0.445312 0 L 1085 0 L 1085 1200.351562 L 0.445312 1200.351562 Z M 0.445312 0 " clip-rule="nonzero"/></clipPath><clipPath id="4bfa774c82"><rect x="0" width="1085" y="0" height="1250"/></clipPath><clipPath id="c6cac736ab"><rect x="0" width="1085" y="0" height="1250"/></clipPath></defs><rect x="-150" width="1800" fill="#ffffff" y="-149.999993" height="1799.99992" fill-opacity="1"/><rect x="-150" width="1800" fill="#0d2559" y="-149.999993" height="1799.99992" fill-opacity="1"/><g fill="#ffffff" fill-opacity="1"><g transform="translate(204.8088, 777.452673)"><g><path d="M 15.359375 -13.796875 L 24.234375 0 L 21.046875 0 L 12.40625 -13.6875 L 6.40625 -13.6875 L 6.40625 0 L 3.71875 0 L 3.71875 -30 L 14.125 -30 C 16.414062 -30 18.375 -29.195312 20 -27.59375 C 21.601562 -25.96875 22.40625 -24.007812 22.40625 -21.71875 C 22.40625 -19.695312 21.738281 -17.9375 20.40625 -16.4375 C 19.039062 -14.914062 17.359375 -14.035156 15.359375 -13.796875 Z M 6.40625 -16.28125 L 14 -16.28125 C 15.625 -16.28125 16.984375 -16.800781 18.078125 -17.84375 C 19.148438 -18.851562 19.6875 -20.160156 19.6875 -21.765625 C 19.6875 -23.359375 19.140625 -24.675781 18.046875 -25.71875 C 16.953125 -26.757812 15.601562 -27.28125 14 -27.28125 L 6.40625 -27.28125 Z M 6.40625 -16.28125 "/></g></g></g><g fill="#ffffff" fill-opacity="1"><g transform="translate(233.566873, 777.452673)"><g><path d="M 17.765625 -38.078125 L 11.234375 -32.40625 L 10.15625 -33.59375 L 16.234375 -39.796875 Z M 20.078125 -27.40625 L 6.640625 -27.40625 L 6.640625 -16.3125 L 18.40625 -16.3125 L 18.40625 -13.6875 L 6.640625 -13.6875 L 6.640625 -2.59375 L 20.078125 -2.59375 L 20.078125 0 L 3.953125 0 L 3.953125 -30 L 20.078125 -30 Z M 20.078125 -27.40625 "/></g></g></g><g fill="#ffffff" fill-opacity="1"><g transform="translate(259.045264, 777.452673)"><g><path d="M 14.125 -30 C 16.414062 -30 18.375 -29.195312 20 -27.59375 C 21.601562 -25.96875 22.40625 -24.007812 22.40625 -21.71875 C 22.40625 -19.445312 21.601562 -17.515625 20 -15.921875 C 18.375 -14.316406 16.414062 -13.515625 14.125 -13.515625 L 6.40625 -13.515625 L 6.40625 0 L 3.71875 0 L 3.71875 -30 Z M 13.875 -16.125 C 15.53125 -16.125 16.921875 -16.644531 18.046875 -17.6875 C 19.140625 -18.695312 19.6875 -20.039062 19.6875 -21.71875 C 19.6875 -23.375 19.125 -24.734375 18 -25.796875 C 16.875 -26.867188 15.5 -27.40625 13.875 -27.40625 L 6.40625 -27.40625 L 6.40625 -16.125 Z M 13.875 -16.125 "/></g></g></g><g fill="#ffffff" fill-opacity="1"><g transform="translate(285.803529, 777.452673)"><g><path d="M 24.234375 0 L 21.4375 -7.15625 L 5.875 -7.15625 L 3.078125 0 L 0.125 0 L 12.15625 -30 L 15.15625 -30 L 27.203125 0 Z M 6.921875 -9.765625 L 20.40625 -9.765625 L 13.6875 -26.875 Z M 6.921875 -9.765625 "/></g></g></g><g fill="#ffffff" fill-opacity="1"><g transform="translate(316.5614, 777.452673)"><g><path d="M 15.359375 -13.796875 L 24.234375 0 L 21.046875 0 L 12.40625 -13.6875 L 6.40625 -13.6875 L 6.40625 0 L 3.71875 0 L 3.71875 -30 L 14.125 -30 C 16.414062 -30 18.375 -29.195312 20 -27.59375 C 21.601562 -25.96875 22.40625 -24.007812 22.40625 -21.71875 C 22.40625 -19.695312 21.738281 -17.9375 20.40625 -16.4375 C 19.039062 -14.914062 17.359375 -14.035156 15.359375 -13.796875 Z M 6.40625 -16.28125 L 14 -16.28125 C 15.625 -16.28125 16.984375 -16.800781 18.078125 -17.84375 C 19.148438 -18.851562 19.6875 -20.160156 19.6875 -21.765625 C 19.6875 -23.359375 19.140625 -24.675781 18.046875 -25.71875 C 16.953125 -26.757812 15.601562 -27.28125 14 -27.28125 L 6.40625 -27.28125 Z M 6.40625 -16.28125 "/></g></g></g><g fill="#ffffff" fill-opacity="1"><g transform="translate(345.319473, 777.452673)"><g><path d="M 20.078125 -27.40625 L 6.640625 -27.40625 L 6.640625 -16.3125 L 18.40625 -16.3125 L 18.40625 -13.6875 L 6.640625 -13.6875 L 6.640625 -2.59375 L 20.078125 -2.59375 L 20.078125 0 L 3.953125 0 L 3.953125 -30 L 20.078125 -30 Z M 20.078125 -27.40625 "/></g></g></g><g fill="#ffffff" fill-opacity="1"><g transform="translate(370.797864, 777.452673)"><g><path d="M 15.359375 -13.796875 L 24.234375 0 L 21.046875 0 L 12.40625 -13.6875 L 6.40625 -13.6875 L 6.40625 0 L 3.71875 0 L 3.71875 -30 L 14.125 -30 C 16.414062 -30 18.375 -29.195312 20 -27.59375 C 21.601562 -25.96875 22.40625 -24.007812 22.40625 -21.71875 C 22.40625 -19.695312 21.738281 -17.9375 20.40625 -16.4375 C 19.039062 -14.914062 17.359375 -14.035156 15.359375 -13.796875 Z M 6.40625 -16.28125 L 14 -16.28125 C 15.625 -16.28125 16.984375 -16.800781 18.078125 -17.84375 C 19.148438 -18.851562 19.6875 -20.160156 19.6875 -21.765625 C 19.6875 -23.359375 19.140625 -24.675781 18.046875 -25.71875 C 16.953125 -26.757812 15.601562 -27.28125 14 -27.28125 L 6.40625 -27.28125 Z M 6.40625 -16.28125 "/></g></g></g><g fill="#ffffff" fill-opacity="1"><g transform="translate(399.555937, 777.452673)"><g><path d="M 2.046875 8.4375 L 0.203125 7.640625 L 4.921875 -3 L 7.4375 -1.921875 Z M 2.046875 8.4375 "/></g></g></g><g fill="#ffffff" fill-opacity="1"><g transform="translate(412.715566, 777.452673)"><g/></g></g><g fill="#ffffff" fill-opacity="1"><g transform="translate(427.35503, 777.452673)"><g><path d="M 15.359375 -13.796875 L 24.234375 0 L 21.046875 0 L 12.40625 -13.6875 L 6.40625 -13.6875 L 6.40625 0 L 3.71875 0 L 3.71875 -30 L 14.125 -30 C 16.414062 -30 18.375 -29.195312 20 -27.59375 C 21.601562 -25.96875 22.40625 -24.007812 22.40625 -21.71875 C 22.40625 -19.695312 21.738281 -17.9375 20.40625 -16.4375 C 19.039062 -14.914062 17.359375 -14.035156 15.359375 -13.796875 Z M 6.40625 -16.28125 L 14 -16.28125 C 15.625 -16.28125 16.984375 -16.800781 18.078125 -17.84375 C 19.148438 -18.851562 19.6875 -20.160156 19.6875 -21.765625 C 19.6875 -23.359375 19.140625 -24.675781 18.046875 -25.71875 C 16.953125 -26.757812 15.601562 -27.28125 14 -27.28125 L 6.40625 -27.28125 Z M 6.40625 -16.28125 "/></g></g></g><g fill="#ffffff" fill-opacity="1"><g transform="translate(456.113114, 777.452673)"><g><path d="M 17.765625 -38.078125 L 11.234375 -32.40625 L 10.15625 -33.59375 L 16.234375 -39.796875 Z M 20.078125 -27.40625 L 6.640625 -27.40625 L 6.640625 -16.3125 L 18.40625 -16.3125 L 18.40625 -13.6875 L 6.640625 -13.6875 L 6.640625 -2.59375 L 20.078125 -2.59375 L 20.078125 0 L 3.953125 0 L 3.953125 -30 L 20.078125 -30 Z M 20.078125 -27.40625 "/></g></g></g><g fill="#ffffff" fill-opacity="1"><g transform="translate(481.591506, 777.452673)"><g><path d="M 20.078125 -27.40625 L 6.640625 -27.40625 L 6.640625 -16.3125 L 18.40625 -16.3125 L 18.40625 -13.6875 L 6.640625 -13.6875 L 6.640625 -2.59375 L 20.078125 -2.59375 L 20.078125 0 L 3.953125 0 L 3.953125 -30 L 20.078125 -30 Z M 20.078125 -27.40625 "/></g></g></g><g fill="#ffffff" fill-opacity="1"><g transform="translate(507.069897, 777.452673)"><g><path d="M 30.203125 -30 L 33 -30 L 33 0 L 30.3125 0 L 30.3125 -25.125 L 18.3125 -4.5625 L 6.40625 -25.15625 L 6.40625 0 L 3.71875 0 L 3.71875 -30 L 6.515625 -30 L 18.359375 -9.765625 Z M 30.203125 -30 "/></g></g></g><g fill="#ffffff" fill-opacity="1"><g transform="translate(547.226822, 777.452673)"><g><path d="M 14.125 -30 C 16.414062 -30 18.375 -29.195312 20 -27.59375 C 21.601562 -25.96875 22.40625 -24.007812 22.40625 -21.71875 C 22.40625 -19.445312 21.601562 -17.515625 20 -15.921875 C 18.375 -14.316406 16.414062 -13.515625 14.125 -13.515625 L 6.40625 -13.515625 L 6.40625 0 L 3.71875 0 L 3.71875 -30 Z M 13.875 -16.125 C 15.53125 -16.125 16.921875 -16.644531 18.046875 -17.6875 C 19.140625 -18.695312 19.6875 -20.039062 19.6875 -21.71875 C 19.6875 -23.375 19.125 -24.734375 18 -25.796875 C 16.875 -26.867188 15.5 -27.40625 13.875 -27.40625 L 6.40625 -27.40625 L 6.40625 -16.125 Z M 13.875 -16.125 "/></g></g></g><g fill="#ffffff" fill-opacity="1"><g transform="translate(573.985098, 777.452673)"><g><path d="M 6.40625 -2.71875 L 17.71875 -2.71875 L 17.71875 0 L 3.71875 0 L 3.71875 -30 L 6.40625 -30 Z M 6.40625 -2.71875 "/></g></g></g><g fill="#ffffff" fill-opacity="1"><g transform="translate(595.543888, 777.452673)"><g><path d="M 18.046875 0.40625 C 13.773438 0.40625 10.144531 -1.101562 7.15625 -4.125 C 4.144531 -7.101562 2.640625 -10.726562 2.640625 -15 C 2.640625 -19.269531 4.144531 -22.910156 7.15625 -25.921875 C 10.144531 -28.910156 13.773438 -30.40625 18.046875 -30.40625 C 22.304688 -30.40625 25.941406 -28.910156 28.953125 -25.921875 C 31.941406 -22.910156 33.4375 -19.269531 33.4375 -15 C 33.4375 -10.726562 31.941406 -7.101562 28.953125 -4.125 C 25.941406 -1.101562 22.304688 0.40625 18.046875 0.40625 Z M 18.046875 -2.3125 C 21.554688 -2.3125 24.554688 -3.554688 27.046875 -6.046875 C 29.492188 -8.492188 30.71875 -11.476562 30.71875 -15 C 30.71875 -18.519531 29.492188 -21.519531 27.046875 -24 C 24.554688 -26.457031 21.554688 -27.6875 18.046875 -27.6875 C 14.523438 -27.6875 11.523438 -26.457031 9.046875 -24 C 6.554688 -21.519531 5.3125 -18.519531 5.3125 -15 C 5.3125 -11.476562 6.554688 -8.492188 9.046875 -6.046875 C 11.523438 -3.554688 14.523438 -2.3125 18.046875 -2.3125 Z M 18.046875 -2.3125 "/></g></g></g><g fill="#ffffff" fill-opacity="1"><g transform="translate(635.020874, 777.452673)"><g><path d="M 23.71875 -30 L 13.28125 -14.203125 L 13.28125 0 L 10.5625 0 L 10.5625 -14.203125 L 0.125 -30 L 3.484375 -30 L 11.921875 -17 L 20.40625 -30 Z M 23.71875 -30 "/></g></g></g><g fill="#ffffff" fill-opacity="1"><g transform="translate(662.299101, 777.452673)"><g><path d="M 20.078125 -27.40625 L 6.640625 -27.40625 L 6.640625 -16.3125 L 18.40625 -16.3125 L 18.40625 -13.6875 L 6.640625 -13.6875 L 6.640625 -2.59375 L 20.078125 -2.59375 L 20.078125 0 L 3.953125 0 L 3.953125 -30 L 20.078125 -30 Z M 20.078125 -27.40625 "/></g></g></g><g fill="#ffffff" fill-opacity="1"><g transform="translate(687.777492, 777.452673)"><g><path d="M 15.359375 -13.796875 L 24.234375 0 L 21.046875 0 L 12.40625 -13.6875 L 6.40625 -13.6875 L 6.40625 0 L 3.71875 0 L 3.71875 -30 L 14.125 -30 C 16.414062 -30 18.375 -29.195312 20 -27.59375 C 21.601562 -25.96875 22.40625 -24.007812 22.40625 -21.71875 C 22.40625 -19.695312 21.738281 -17.9375 20.40625 -16.4375 C 19.039062 -14.914062 17.359375 -14.035156 15.359375 -13.796875 Z M 6.40625 -16.28125 L 14 -16.28125 C 15.625 -16.28125 16.984375 -16.800781 18.078125 -17.84375 C 19.148438 -18.851562 19.6875 -20.160156 19.6875 -21.765625 C 19.6875 -23.359375 19.140625 -24.675781 18.046875 -25.71875 C 16.953125 -26.757812 15.601562 -27.28125 14 -27.28125 L 6.40625 -27.28125 Z M 6.40625 -16.28125 "/></g></g></g><g fill="#ffffff" fill-opacity="1"><g transform="translate(716.535576, 777.452673)"><g><path d="M 2.046875 8.4375 L 0.203125 7.640625 L 4.921875 -3 L 7.4375 -1.921875 Z M 2.046875 8.4375 "/></g></g></g><g fill="#ffffff" fill-opacity="1"><g transform="translate(729.695182, 777.452673)"><g/></g></g><g fill="#ffffff" fill-opacity="1"><g transform="translate(744.334646, 777.452673)"><g><path d="M 15.359375 -13.796875 L 24.234375 0 L 21.046875 0 L 12.40625 -13.6875 L 6.40625 -13.6875 L 6.40625 0 L 3.71875 0 L 3.71875 -30 L 14.125 -30 C 16.414062 -30 18.375 -29.195312 20 -27.59375 C 21.601562 -25.96875 22.40625 -24.007812 22.40625 -21.71875 C 22.40625 -19.695312 21.738281 -17.9375 20.40625 -16.4375 C 19.039062 -14.914062 17.359375 -14.035156 15.359375 -13.796875 Z M 6.40625 -16.28125 L 14 -16.28125 C 15.625 -16.28125 16.984375 -16.800781 18.078125 -17.84375 C 19.148438 -18.851562 19.6875 -20.160156 19.6875 -21.765625 C 19.6875 -23.359375 19.140625 -24.675781 18.046875 -25.71875 C 16.953125 -26.757812 15.601562 -27.28125 14 -27.28125 L 6.40625 -27.28125 Z M 6.40625 -16.28125 "/></g></g></g><g fill="#ffffff" fill-opacity="1"><g transform="translate(773.092731, 777.452673)"><g><path d="M 17.765625 -38.078125 L 11.234375 -32.40625 L 10.15625 -33.59375 L 16.234375 -39.796875 Z M 20.078125 -27.40625 L 6.640625 -27.40625 L 6.640625 -16.3125 L 18.40625 -16.3125 L 18.40625 -13.6875 L 6.640625 -13.6875 L 6.640625 -2.59375 L 20.078125 -2.59375 L 20.078125 0 L 3.953125 0 L 3.953125 -30 L 20.078125 -30 Z M 20.078125 -27.40625 "/></g></g></g><g fill="#ffffff" fill-opacity="1"><g transform="translate(798.571122, 777.452673)"><g><path d="M 25.203125 -30 L 27.875 -30 L 27.875 0 L 25.484375 0 L 6.40625 -25.359375 L 6.40625 0 L 3.71875 0 L 3.71875 -30 L 6.125 -30 L 25.203125 -4.6875 Z M 25.203125 -30 "/></g></g></g><g fill="#ffffff" fill-opacity="1"><g transform="translate(833.608579, 777.452673)"><g><path d="M 18.046875 0.40625 C 13.773438 0.40625 10.144531 -1.101562 7.15625 -4.125 C 4.144531 -7.101562 2.640625 -10.726562 2.640625 -15 C 2.640625 -19.269531 4.144531 -22.910156 7.15625 -25.921875 C 10.144531 -28.910156 13.773438 -30.40625 18.046875 -30.40625 C 22.304688 -30.40625 25.941406 -28.910156 28.953125 -25.921875 C 31.941406 -22.910156 33.4375 -19.269531 33.4375 -15 C 33.4375 -10.726562 31.941406 -7.101562 28.953125 -4.125 C 25.941406 -1.101562 22.304688 0.40625 18.046875 0.40625 Z M 18.046875 -2.3125 C 21.554688 -2.3125 24.554688 -3.554688 27.046875 -6.046875 C 29.492188 -8.492188 30.71875 -11.476562 30.71875 -15 C 30.71875 -18.519531 29.492188 -21.519531 27.046875 -24 C 24.554688 -26.457031 21.554688 -27.6875 18.046875 -27.6875 C 14.523438 -27.6875 11.523438 -26.457031 9.046875 -24 C 6.554688 -21.519531 5.3125 -18.519531 5.3125 -15 C 5.3125 -11.476562 6.554688 -8.492188 9.046875 -6.046875 C 11.523438 -3.554688 14.523438 -2.3125 18.046875 -2.3125 Z M 18.046875 -2.3125 "/></g></g></g><g fill="#ffffff" fill-opacity="1"><g transform="translate(873.085566, 777.452673)"><g><path d="M 24.203125 -30 L 27.203125 -30 L 15.15625 0 L 12.15625 0 L 0.125 -30 L 3.125 -30 L 13.6875 -3.125 Z M 24.203125 -30 "/></g></g></g><g fill="#ffffff" fill-opacity="1"><g transform="translate(903.843436, 777.452673)"><g><path d="M 20.078125 -27.40625 L 6.640625 -27.40625 L 6.640625 -16.3125 L 18.40625 -16.3125 L 18.40625 -13.6875 L 6.640625 -13.6875 L 6.640625 -2.59375 L 20.078125 -2.59375 L 20.078125 0 L 3.953125 0 L 3.953125 -30 L 20.078125 -30 Z M 20.078125 -27.40625 "/></g></g></g><g fill="#ffffff" fill-opacity="1"><g transform="translate(929.321827, 777.452673)"><g><path d="M 15.359375 -13.796875 L 24.234375 0 L 21.046875 0 L 12.40625 -13.6875 L 6.40625 -13.6875 L 6.40625 0 L 3.71875 0 L 3.71875 -30 L 14.125 -30 C 16.414062 -30 18.375 -29.195312 20 -27.59375 C 21.601562 -25.96875 22.40625 -24.007812 22.40625 -21.71875 C 22.40625 -19.695312 21.738281 -17.9375 20.40625 -16.4375 C 19.039062 -14.914062 17.359375 -14.035156 15.359375 -13.796875 Z M 6.40625 -16.28125 L 14 -16.28125 C 15.625 -16.28125 16.984375 -16.800781 18.078125 -17.84375 C 19.148438 -18.851562 19.6875 -20.160156 19.6875 -21.765625 C 19.6875 -23.359375 19.140625 -24.675781 18.046875 -25.71875 C 16.953125 -26.757812 15.601562 -27.28125 14 -27.28125 L 6.40625 -27.28125 Z M 6.40625 -16.28125 "/></g></g></g><g fill="#ffffff" fill-opacity="1"><g transform="translate(958.079912, 777.452673)"><g/></g></g><g fill="#ffffff" fill-opacity="1"><g transform="translate(972.719376, 777.452673)"><g><path d="M 3.71875 0 L 3.71875 -30 L 11.640625 -30 C 15.773438 -30 19.304688 -28.53125 22.234375 -25.59375 C 25.171875 -22.664062 26.640625 -19.132812 26.640625 -15 C 26.640625 -10.863281 25.171875 -7.332031 22.234375 -4.40625 C 19.304688 -1.46875 15.773438 0 11.640625 0 Z M 6.40625 -2.71875 L 11.59375 -2.71875 C 15.0625 -2.71875 17.984375 -3.890625 20.359375 -6.234375 C 22.734375 -8.585938 23.921875 -11.507812 23.921875 -15 C 23.921875 -18.488281 22.734375 -21.410156 20.359375 -23.765625 C 17.984375 -26.109375 15.0625 -27.28125 11.59375 -27.28125 L 6.40625 -27.28125 Z M 6.40625 -2.71875 "/></g></g></g><g fill="#ffffff" fill-opacity="1"><g transform="translate(1005.437024, 777.452673)"><g><path d="M 14.640625 0.40625 C 11.460938 0.40625 8.820312 -0.582031 6.71875 -2.5625 C 4.613281 -4.507812 3.5625 -6.945312 3.5625 -9.875 L 3.5625 -30 L 6.234375 -30 L 6.234375 -10.28125 C 6.234375 -8.007812 7.035156 -6.113281 8.640625 -4.59375 C 10.242188 -3.070312 12.242188 -2.3125 14.640625 -2.3125 C 17.015625 -2.3125 19 -3.070312 20.59375 -4.59375 C 22.195312 -6.113281 23 -8.007812 23 -10.28125 L 23 -30 L 25.71875 -30 L 25.71875 -9.875 C 25.71875 -6.945312 24.664062 -4.507812 22.5625 -2.5625 C 20.457031 -0.582031 17.816406 0.40625 14.640625 0.40625 Z M 14.640625 0.40625 "/></g></g></g><g fill="#ffffff" fill-opacity="1"><g transform="translate(1038.154764, 777.452673)"><g><path d="M 15.359375 -13.796875 L 24.234375 0 L 21.046875 0 L 12.40625 -13.6875 L 6.40625 -13.6875 L 6.40625 0 L 3.71875 0 L 3.71875 -30 L 14.125 -30 C 16.414062 -30 18.375 -29.195312 20 -27.59375 C 21.601562 -25.96875 22.40625 -24.007812 22.40625 -21.71875 C 22.40625 -19.695312 21.738281 -17.9375 20.40625 -16.4375 C 19.039062 -14.914062 17.359375 -14.035156 15.359375 -13.796875 Z M 6.40625 -16.28125 L 14 -16.28125 C 15.625 -16.28125 16.984375 -16.800781 18.078125 -17.84375 C 19.148438 -18.851562 19.6875 -20.160156 19.6875 -21.765625 C 19.6875 -23.359375 19.140625 -24.675781 18.046875 -25.71875 C 16.953125 -26.757812 15.601562 -27.28125 14 -27.28125 L 6.40625 -27.28125 Z M 6.40625 -16.28125 "/></g></g></g><g fill="#ffffff" fill-opacity="1"><g transform="translate(1066.912849, 777.452673)"><g><path d="M 24.234375 0 L 21.4375 -7.15625 L 5.875 -7.15625 L 3.078125 0 L 0.125 0 L 12.15625 -30 L 15.15625 -30 L 27.203125 0 Z M 6.921875 -9.765625 L 20.40625 -9.765625 L 13.6875 -26.875 Z M 6.921875 -9.765625 "/></g></g></g><g fill="#ffffff" fill-opacity="1"><g transform="translate(1097.67072, 777.452673)"><g><path d="M 17.953125 -15.28125 C 19.660156 -14.800781 21.023438 -13.90625 22.046875 -12.59375 C 23.054688 -11.289062 23.5625 -9.71875 23.5625 -7.875 C 23.5625 -5.613281 22.785156 -3.734375 21.234375 -2.234375 C 19.660156 -0.742188 17.742188 0 15.484375 0 L 3.71875 0 L 3.71875 -30 L 13.953125 -30 C 16.222656 -30 18.160156 -29.253906 19.765625 -27.765625 C 21.335938 -26.242188 22.125 -24.347656 22.125 -22.078125 C 22.125 -20.535156 21.765625 -19.175781 21.046875 -18 C 20.296875 -16.820312 19.265625 -15.914062 17.953125 -15.28125 Z M 19.40625 -21.875 C 19.40625 -23.425781 18.859375 -24.722656 17.765625 -25.765625 C 16.640625 -26.773438 15.28125 -27.28125 13.6875 -27.28125 L 6.40625 -27.28125 L 6.40625 -16.3125 L 13.6875 -16.3125 C 15.28125 -16.3125 16.640625 -16.847656 17.765625 -17.921875 C 18.859375 -18.984375 19.40625 -20.300781 19.40625 -21.875 Z M 15.15625 -2.71875 C 16.757812 -2.71875 18.109375 -3.238281 19.203125 -4.28125 C 20.296875 -5.320312 20.84375 -6.613281 20.84375 -8.15625 C 20.84375 -9.707031 20.296875 -11.015625 19.203125 -12.078125 C 18.078125 -13.148438 16.726562 -13.6875 15.15625 -13.6875 L 6.40625 -13.6875 L 6.40625 -2.71875 Z M 15.15625 -2.71875 "/></g></g></g><g fill="#ffffff" fill-opacity="1"><g transform="translate(1126.988649, 777.452673)"><g><path d="M 6.40625 -2.71875 L 17.71875 -2.71875 L 17.71875 0 L 3.71875 0 L 3.71875 -30 L 6.40625 -30 Z M 6.40625 -2.71875 "/></g></g></g><g fill="#ffffff" fill-opacity="1"><g transform="translate(1148.547485, 777.452673)"><g><path d="M 20.078125 -27.40625 L 6.640625 -27.40625 L 6.640625 -16.3125 L 18.40625 -16.3125 L 18.40625 -13.6875 L 6.640625 -13.6875 L 6.640625 -2.59375 L 20.078125 -2.59375 L 20.078125 0 L 3.953125 0 L 3.953125 -30 L 20.078125 -30 Z M 20.078125 -27.40625 "/></g></g></g><g fill="#ffffff" fill-opacity="1"><g transform="translate(1174.025876, 777.452673)"><g><path d="M 30.203125 -30 L 33 -30 L 33 0 L 30.3125 0 L 30.3125 -25.125 L 18.3125 -4.5625 L 6.40625 -25.15625 L 6.40625 0 L 3.71875 0 L 3.71875 -30 L 6.515625 -30 L 18.359375 -9.765625 Z M 30.203125 -30 "/></g></g></g><g fill="#ffffff" fill-opacity="1"><g transform="translate(1214.182825, 777.452673)"><g><path d="M 20.078125 -27.40625 L 6.640625 -27.40625 L 6.640625 -16.3125 L 18.40625 -16.3125 L 18.40625 -13.6875 L 6.640625 -13.6875 L 6.640625 -2.59375 L 20.078125 -2.59375 L 20.078125 0 L 3.953125 0 L 3.953125 -30 L 20.078125 -30 Z M 20.078125 -27.40625 "/></g></g></g><g fill="#ffffff" fill-opacity="1"><g transform="translate(1239.661216, 777.452673)"><g><path d="M 25.203125 -30 L 27.875 -30 L 27.875 0 L 25.484375 0 L 6.40625 -25.359375 L 6.40625 0 L 3.71875 0 L 3.71875 -30 L 6.125 -30 L 25.203125 -4.6875 Z M 25.203125 -30 "/></g></g></g><g fill="#ffffff" fill-opacity="1"><g transform="translate(1274.698628, 777.452673)"><g><path d="M 20 -30 L 20 -27.3125 L 11.59375 -27.3125 L 11.59375 0 L 8.875 0 L 8.875 -27.3125 L 0.515625 -27.3125 L 0.515625 -30 Z M 20 -30 "/></g></g></g><g clip-path="url(#03622397b7)"><g transform="matrix(1, 0, 0, 1, 133, 0.000000000000112861)"><g clip-path="url(#2e8e132fbf)"><g clip-path="url(#83c3f17163)"><g mask="url(#db7ff0b169)"><g transform="matrix(1, 0, 0, 1, -0.000000000000028422, 0.000000000000112861)"><g clip-path="url(#0a91f3175c)"><g clip-path="url(#13b1038859)"><path fill="url(#6fed74fcf5)" d="M 0.757812 0 L 0.757812 1204.851562 L 1150.507812 1204.851562 L 1150.507812 0 Z M 0.757812 0 " fill-rule="nonzero"/></g></g></g></g></g></g></g></g><g fill="#ffffff" fill-opacity="1"><g transform="translate(333.088862, 686.600105)"><g><path d="M 160.546875 0 L 30.015625 0 L 30.015625 -169.828125 L 96.140625 -169.828125 C 110.285156 -169.828125 121.832031 -167.304688 130.78125 -162.265625 C 139.5625 -157.378906 146.390625 -150.707031 151.265625 -142.25 C 156.148438 -133.789062 158.59375 -124.4375 158.59375 -114.1875 C 158.59375 -101.5 154.6875 -90.148438 146.875 -80.140625 C 139.070312 -70.140625 129.234375 -63.515625 117.359375 -60.265625 Z M 45.390625 -160.796875 L 111.75 -68.078125 C 122.644531 -70.347656 131.671875 -75.796875 138.828125 -84.421875 C 145.992188 -93.046875 149.578125 -102.96875 149.578125 -114.1875 C 149.578125 -123.132812 147.378906 -131.269531 142.984375 -138.59375 C 138.585938 -145.914062 132.40625 -151.523438 124.4375 -155.421875 C 117.28125 -159.003906 107.925781 -160.796875 96.375 -160.796875 Z M 39.046875 -154.9375 L 39.046875 -67.34375 L 101.75 -67.34375 Z M 39.046875 -9.03125 L 143.46875 -9.03125 L 107.84375 -58.5625 L 100.28125 -58.3125 L 39.046875 -58.3125 Z M 39.046875 -9.03125 "/></g></g></g><g clip-path="url(#6731b62c88)"><g transform="matrix(1, 0, 0, 1, 609, 78)"><g clip-path="url(#6824f49ef3)"><g clip-path="url(#3cbef06918)"><g mask="url(#3184520ba3)"><g transform="matrix(1, 0, 0, 1, 0, 0.000000000000113687)"><g clip-path="url(#c74a290ce5)"><g clip-path="url(#c89944cf54)"><path fill="url(#8234ecf881)" d="M 0.675781 0.75 L 0.675781 1013.25 L 891 1013.25 L 891 0.75 Z M 0.675781 0.75 " fill-rule="nonzero"/></g></g></g></g></g></g></g></g><g fill="#ffffff" fill-opacity="1"><g transform="translate(492.183735, 689.249921)"><g><path d="M 112.953125 -154.125 L 37.34375 -154.125 L 37.34375 -91.796875 L 103.5 -91.796875 L 103.5 -76.953125 L 37.34375 -76.953125 L 37.34375 -14.625 L 112.953125 -14.625 L 112.953125 0 L 22.28125 0 L 22.28125 -168.75 L 112.953125 -168.75 Z M 112.953125 -154.125 "/></g></g></g><g clip-path="url(#663d1583cc)"><g transform="matrix(1, 0, 0, 1, 342, 78)"><g clip-path="url(#49be9cfa69)"><g clip-path="url(#9989419e60)"><g mask="url(#75efb6809c)"><g transform="matrix(1, 0, 0, 1, -0.000000000000056843, 0.000000000000113687)"><g clip-path="url(#2a61bbb20b)"><g clip-path="url(#816cad4795)"><path fill="url(#66ad9fdf77)" d="M 0.351562 0.75 L 0.351562 1013.25 L 1020.351562 1013.25 L 1020.351562 0.75 Z M 0.351562 0.75 " fill-rule="nonzero"/></g></g></g></g></g></g></g></g><g clip-path="url(#cf4951d4a7)"><g transform="matrix(1, 0, 0, 1, 415, 0.000000000000112861)"><g clip-path="url(#c6cac736ab)"><g clip-path="url(#3ebface1ea)"><g mask="url(#98efc93c99)"><g transform="matrix(1, 0, 0, 1, 0, 0.000000000000112861)"><g clip-path="url(#4bfa774c82)"><g clip-path="url(#f2a1f5f902)"><path fill="url(#663abe0500)" d="M 0.445312 0 L 0.445312 1200.351562 L 1085 1200.351562 L 1085 0 Z M 0.445312 0 " fill-rule="nonzero"/></g></g></g></g></g></g></g></g></svg>